<?xml version="1.0" encoding="UTF-8" standalone="no"?>
<svg xmlns="http://www.w3.org/2000/svg" xmlns:xlink="http://www.w3.org/1999/xlink" width="48" height="48" version="1.0">
  <defs>
    <linearGradient id="j">
      <stop offset="0" stop-color="#fff"/>
      <stop offset="1" stop-color="#fff" stop-opacity="0"/>
    </linearGradient>
    <linearGradient id="i">
      <stop offset="0" stop-color="#fff"/>
      <stop offset="1" stop-color="#fff" stop-opacity="0"/>
    </linearGradient>
    <linearGradient id="h">
      <stop offset="0" stop-color="#f5f5f5"/>
      <stop offset="1" stop-color="#c7c7c7"/>
    </linearGradient>
    <linearGradient id="g">
      <stop offset="0" stop-color="#e3e3e3"/>
      <stop offset=".5" stop-color="#b2b2b2"/>
      <stop offset="1" stop-color="#d6d6d6"/>
    </linearGradient>
    <linearGradient id="f">
      <stop offset="0" stop-color="#cecece"/>
      <stop offset="1" stop-color="#a0a0a0"/>
    </linearGradient>
    <linearGradient id="e">
      <stop offset="0" stop-color="#fff"/>
      <stop offset="1" stop-color="#fff" stop-opacity="0"/>
    </linearGradient>
    <linearGradient id="l">
      <stop offset="0" stop-color="#e8e8e8"/>
      <stop offset="1" stop-color="#717171" stop-opacity="0"/>
    </linearGradient>
    <linearGradient id="d">
      <stop offset="0" stop-color="#c9c9c9"/>
      <stop offset=".32142857" stop-color="#939393"/>
      <stop offset=".75" stop-color="#d1d1d1"/>
      <stop offset="1" stop-color="#b2b2b2"/>
    </linearGradient>
    <linearGradient id="c">
      <stop offset="0" stop-color="#b5b5b5"/>
      <stop offset=".5" stop-color="#868686"/>
      <stop offset="1" stop-color="#c7c7c7"/>
    </linearGradient>
    <linearGradient id="b">
      <stop offset="0" stop-color="#717171"/>
      <stop offset="1" stop-color="#ccc"/>
    </linearGradient>
    <linearGradient id="k">
      <stop offset="0" stop-color="#717171"/>
      <stop offset="1" stop-color="#717171" stop-opacity="0"/>
    </linearGradient>
    <linearGradient id="a">
      <stop offset="0" stop-color="#eddee1"/>
      <stop offset="1" stop-color="#cb9ea7"/>
    </linearGradient>
    <linearGradient xlink:href="#a" id="v" x1="134.34375" x2="171.65625" y1="71.5" y2="212.5" gradientTransform="matrix(.201 0 0 .20095 -1.0020767 -6.708875)" gradientUnits="userSpaceOnUse"/>
    <linearGradient xlink:href="#b" id="z" x1="172.42566" x2="152.25" y1="202.57323" y2="202.57323" gradientTransform="matrix(.201 0 0 .20095 -1.0020767 -1.4840892)" gradientUnits="userSpaceOnUse"/>
    <linearGradient xlink:href="#b" id="A" x1="201" x2="145" y1="189" y2="212.5" gradientTransform="matrix(.201 0 0 .20095 -1.0020767 -1.4840892)" gradientUnits="userSpaceOnUse"/>
    <linearGradient xlink:href="#b" id="B" x1="228.5" x2="141" y1="149.5" y2="202.5" gradientTransform="matrix(.201 0 0 .20095 -1.0020767 -1.4840892)" gradientUnits="userSpaceOnUse"/>
    <linearGradient xlink:href="#b" id="s" x1="184" x2="215.5" y1="166" y2="170.25" gradientTransform="matrix(.201 0 0 .20095 -1.0020767 -1.4840892)" gradientUnits="userSpaceOnUse"/>
    <linearGradient xlink:href="#c" id="w" x1="153.25" x2="184.25" y1="202.75" y2="201.75" gradientTransform="matrix(.201 0 0 .20095 -1.0020767 -1.4840892)" gradientUnits="userSpaceOnUse"/>
    <linearGradient xlink:href="#d" id="C" x1="65" x2="190" y1="95" y2="95" gradientTransform="matrix(.199 0 0 .20095 -.6201615 -1.4840892)" gradientUnits="userSpaceOnUse"/>
    <linearGradient xlink:href="#c" id="t" x1="192" x2="225.75" y1="146.25" y2="145.25" gradientTransform="matrix(.201 0 0 .20095 -1.0020767 -1.4840892)" gradientUnits="userSpaceOnUse"/>
    <linearGradient xlink:href="#c" id="q" x1="199.5" x2="228.25" y1="114.25" y2="113" gradientTransform="matrix(.201 0 0 .20095 -1.0020767 -1.4840892)" gradientUnits="userSpaceOnUse"/>
    <linearGradient xlink:href="#c" id="u" x1="116.834" x2="145.664" y1="194.83527" y2="194.83527" gradientTransform="matrix(.201 0 0 .20095 -1.0020767 -1.4840892)" gradientUnits="userSpaceOnUse"/>
    <linearGradient xlink:href="#c" id="p" x1="80.96373" x2="108.54089" y1="195.32538" y2="195.73959" gradientTransform="matrix(.201 0 0 .20095 -1.0020767 -1.4840892)" gradientUnits="userSpaceOnUse"/>
    <linearGradient xlink:href="#e" id="E" x1="147.25" x2="148.75" y1="195.625" y2="218.875" gradientTransform="matrix(.201 0 0 .20095 -1.0020767 -1.6850421)" gradientUnits="userSpaceOnUse"/>
    <linearGradient xlink:href="#f" id="F" x1="115" x2="124.5" y1="205.75" y2="206" gradientTransform="matrix(.201 0 0 .20095 -1.0020767 -1.4840892)" gradientUnits="userSpaceOnUse"/>
    <linearGradient xlink:href="#g" id="o" x1="38.890877" x2="59.220192" y1="145.8279" y2="145.88857" gradientTransform="matrix(.201 0 0 .20095 -1.0020767 -1.4840892)" gradientUnits="userSpaceOnUse"/>
    <linearGradient xlink:href="#h" id="H" x1="42" x2="55.910641" y1="172.625" y2="172.625" gradientTransform="matrix(.201 0 0 .20095 -1.0020767 -1.4840892)" gradientUnits="userSpaceOnUse"/>
    <linearGradient xlink:href="#h" id="G" x1="63.213203" x2="83.841362" y1="180.75673" y2="193.125" gradientTransform="matrix(.201 0 0 .20095 -1.0020767 -1.4840892)" gradientUnits="userSpaceOnUse"/>
    <linearGradient xlink:href="#c" id="n" x1="57.21373" x2="93.290894" y1="179.57538" y2="177.23959" gradientTransform="matrix(.201 0 0 .20095 -1.0020767 -1.4840892)" gradientUnits="userSpaceOnUse"/>
    <linearGradient xlink:href="#c" id="r" x1="192" x2="225.75" y1="146.25" y2="145.25" gradientTransform="matrix(.201 0 0 .20095 -1.0020767 -1.4840892)" gradientUnits="userSpaceOnUse"/>
    <linearGradient xlink:href="#i" id="J" x1="26.934336" x2="26.934338" y1="5.5277748" y2="28.598352" gradientTransform="matrix(1.04373 0 0 1.0442 -1.0812013 -.9337631)" gradientUnits="userSpaceOnUse"/>
    <linearGradient xlink:href="#j" id="I" x1="31.071491" x2="30.94672" y1="36.879368" y2="11.32831" gradientTransform="matrix(1.01223 0 0 1.01231 -.3023276 -.2600212)" gradientUnits="userSpaceOnUse"/>
    <radialGradient xlink:href="#k" id="x" cx="-88.308083" cy="73.568199" r="101.65625" fx="-88.308083" fy="73.568199" gradientTransform="matrix(.13809 .04547 -.02383 .07234 20.583764 16.399916)" gradientUnits="userSpaceOnUse"/>
    <radialGradient xlink:href="#k" id="y" cx="147.50781" cy="165.91266" r="101.65625" fx="147.50781" fy="165.91266" gradientTransform="matrix(.14402 .0593 -.02901 .07042 22.769405 4.308221)" gradientUnits="userSpaceOnUse"/>
    <radialGradient xlink:href="#l" id="D" cx="69.515442" cy="48.968105" r="101.65625" fx="69.515442" fy="48.968105" gradientTransform="matrix(.28303 -.28295 .1471 .14706 4.4824059 24.347715)" gradientUnits="userSpaceOnUse"/>
    <filter id="m" width="1.2540649" height="1.326371" x="-.12703245" y="-.16318549">
      <feGaussianBlur stdDeviation="12.915397"/>
    </filter>
  </defs>
  <path d="M136.21875 61.34375c-3.17107 5.598289-4.18012 14.454703-12.125 14.745984-7.95893.291797-9.99809-8.482418-13.84375-13.821318-4.64005.634316-9.16053 1.522436-13.5625 2.627997-.195393 6.120234 3.275946 14.609732-3.9375 17.252315-7.214944 2.643133-13.412496-4.854411-19.59375-8.638324-3.935623 1.958721-7.675616 4.148506-11.21875 6.496993 2.841563 5.704557 10.165834 12.501592 4.8125 17.081982-5.360236 4.586291-14.746829-.456749-22.3125-2.116998-2.669228 2.963715-5.111966 6.054169-7.25 9.295319 5.415489 4.44038 15.609913 8.5348 12.90625 14.38099-2.698074 5.8341-13.881847 3.9761-21.6875 4.69633-.991582 3.50326-1.687244 7.09586-2.0625 10.75532 7.189591 2.4692 18.563422 3.25492 18.9375 9.44132.374739 6.19735-10.893528 7.78517-17.75 10.77966.81462 3.61305 1.955186 7.13299 3.375 10.56065 7.859898.15215 18.762518-2.55087 22.15625 3.066 3.394438 5.61803-6.234268 10.44386-11.09375 15.25699 2.515483 3.06453 5.327711 5.97674 8.34375 8.73565 7.326065-2.21262 16.055144-7.91578 21.9375-3.74733 5.88994 4.17384-.586579 11.48286-2.71875 17.37398 3.806145 2.07844 7.775059 3.98052 11.9375 5.64533 5.70254-4.21685 10.960792-12.15491 18.46875-10.04965 7.49244 2.10089 5.1063 10.80932 6.03125 16.88731 4.49905.77211 9.11284 1.3138 13.8125 1.606 3.17107-5.59829 4.18012-14.45471 12.125-14.74598 7.95893-.2918 9.99809 8.48242 13.84375 13.82131 4.64005-.63431 9.16053-1.52244 13.5625-2.62799.19539-6.12024-3.27595-14.60974 3.9375-17.25232 7.21494-2.64313 13.4125 4.85442 19.59375 8.63833 3.93562-1.95872 7.67562-4.14851 11.21875-6.497-2.84156-5.70455-10.16583-12.50159-4.8125-17.08198 5.36024-4.58629 14.74683.45675 22.3125 2.117 2.66923-2.96372 5.11197-6.05417 7.25-9.29532-5.41549-4.44038-15.60992-8.5348-12.90625-14.38099 2.69807-5.83411 13.88185-3.9761 21.6875-4.69633.99158-3.50325 1.68724-7.09586 2.0625-10.75532-7.18959-2.4692-18.56343-3.25492-18.9375-9.44132-.37474-6.19735 10.89353-7.78517 17.75-10.77966-.81462-3.61304-1.95519-7.13299-3.375-10.56065-7.8599-.15215-18.76252 2.55086-22.15625-3.066-3.39444-5.61803 6.23427-10.44385 11.09375-15.256985-2.51548-3.064535-5.32771-5.97674-8.34375-8.735658-7.32606 2.212629-16.05514 7.915787-21.9375 3.74733-5.88994-4.173833.58658-11.482852 2.71875-17.373982-3.80615-2.078437-7.77506-3.980513-11.9375-5.645327-5.70254 4.216856-10.96079 12.154906-18.46875 10.049656-7.49244-2.100898-5.1063-10.80932-6.03125-16.887316-4.49905-.772111-9.11284-1.313799-13.8125-1.605998zM128 92.222717c34.224 0 62 21.628223 62 48.277283s-27.776 48.27728-62 48.27728c-34.224001 0-62-21.62822-62-48.27728-.000001-26.64906 27.776-48.277283 62-48.277283z" color="#000" display="block" enable-background="accumulate" filter="url(#m)" overflow="visible" style="marker:none" transform="matrix(.201 0 0 .20095 -1.0020767 -1.4840892)"/>
  <path fill="#717171" stroke="#888a85" stroke-miterlimit="10" stroke-width="2" d="M26.375 5.21875c-.63741 1.124995-.840515 2.910216-2.4375 2.96875-1.599808.058638-2.008242-1.70838-2.78125-2.78125-.932687.127468-1.833919.309083-2.71875.53125-.039276 1.229881.66871 2.937715-.78125 3.46875-1.450262.531147-2.726269-.98961-3.96875-1.75-.791093.393611-2.073223 1.3125-2.073223 1.3125l.173255 3.96783s-2.3292723-.634196-3.850032-.96783c-.5365361.595568-1.0389885 1.223682-1.46875 1.875l.3920049 3.6875s-1.2334705.072442-2.1420049.15625c-.1993164.703991-.3620709 1.420869-.4375 2.15625l.1767767 4.600032L4.53125 29.125c.1637449.726056.402106 1.436201.6875 2.125 2.752477-.688263 2.0510146.09467 2.0510146.09467L7.4375 34.9375c.5056319.615827 1.0812523 1.195588 1.6875 1.75 1.472596-.444632 3.223849-1.587664 4.40625-.75 1.183925.838747-.133917 2.316161-.5625 3.5.765066.41767 1.569566.79045 2.40625 1.125 1.146255-.847391 2.209591-2.454309 3.71875-2.03125 1.506042.422181 1.032827 2.184856 1.21875 3.40625.904343.155156 1.805331.25378 2.75.3125.637411-1.124997.840516-2.910217 2.4375-2.96875 1.599808-.058637 2.008242 1.708381 2.78125 2.78125.932688-.127466 1.865169-.309087 2.75-.53125.039275-1.229882-.668711-2.937714.78125-3.46875 1.450259-.531145 2.695019.989611 3.9375 1.75.791092-.393611 1.537803-.840563 2.25-1.3125l-.173255-3.260723c1.077451-.92163 2.183745-.07291 3.704505.260723.536535-.59557 1.007739-1.223679 1.4375-1.875l-.111675-3.520527L44.75 29.78125c.199314-.703989.330819-1.42087.40625-2.15625v-5.21875c-.189537-.065077-.413413-.099599-.625-.15625-.092025-.268212.269581-.726473.160692-.989277l.245558-2.916973c-.163745-.726052-.402106-1.4362-.6875-2.125-1.184927-.022931-2.70929.293596-3.6875-.03125-.023291-.007734-.039846-.022795-.0625-.03125-.053463-.049992-.102121-.106749-.15625-.15625-.029405.008878-.064127.021834-.09375.03125-.1788-.104357-.359116-.256098-.46875-.4375-.682308-1.128963 1.273206-2.095284 2.25-3.0625-.505633-.615829-1.081252-1.195586-1.6875-1.75-1.472595.444635-3.223849 1.587665-4.40625.75-1.183924-.838746.102667-2.284908.53125-3.46875-.765069-.417668-1.538316-.8217-2.375-1.15625-1.146255.847392-2.20959 2.454308-3.71875 2.03125-1.50604-.422183-1.032828-2.184856-1.21875-3.40625-.904345-.155158-1.836581-.253782-2.78125-.3125zm-1.65625 6.1875c.409032 0 .819783.032471 1.21875.0625-.38966.94809-.840146 1.894988-2 1.9375-1.121582.041109-1.669222-.803371-2.15625-1.6875.948331-.179935 1.918335-.3125 2.9375-.3125zm4.53125.6875c1.166416.355437 2.253984.840151 3.21875 1.4375-.625728.496775-1.294936.848928-2.09375.625-.999875-.28029-1.099756-1.154927-1.125-2.0625zm-10.71875.625c.058753.822696.008658 1.582618-.875 1.90625-.65715.240676-1.283108.055866-1.875-.28125.806935-.645946 1.739679-1.173208 2.75-1.625zm6.1875 3.9375c5.718415.000001 10.535132 3.004283 12 7.09375-1.476665 4.075344-6.294484 7.0625-12 7.0625-5.706448.000001-10.524185-2.986134-12-7.0625 1.463781-4.090763 6.280403-7.09375 12-7.09375zm7.625 16.09375c.451358-.020985.891594.138689 1.3125.375-.806203.645373-1.740752 1.173414-2.75 1.625-.056706-.817148.027756-1.58451.90625-1.90625.181282-.066393.355965-.0856.53125-.09375zm-13.8125.5c.175571-.004785.373855.009618.5625.0625.999877.280291 1.099757 1.154927 1.125 2.0625-1.182868-.358576-2.274209-.830602-3.25-1.4375.482687-.385717.98828-.671849 1.5625-.6875zm6.96875.8125c1.130484-.041436 1.666117.827182 2.15625 1.71875-.937335.175522-1.931294.28125-2.9375.28125-.408512 0-.789027-.032546-1.1875-.0625.38966-.948091.808897-1.89499 1.96875-1.9375z" color="#000" display="block" enable-background="accumulate" overflow="visible" style="marker:none"/>
  <path fill="#717171" d="M26.378971 10.441236c-.63741 1.124995-.840237 2.90472-2.437222 2.963254-1.599807.058638-2.009694-1.70457-2.782702-2.77744-.932688.127468-1.841339.305939-2.72617.528105-.039276 1.229881.658491 2.935875-.791469 3.46691-1.450261.531146-2.696017-.975509-3.938498-1.7359-.791093.393612-1.54286.833657-2.255059 1.305592.571177 1.146351 2.043414 2.512236.967351 3.432683-1.077449.921629-2.9642294-.091786-4.4849891-.425419-.536536.595568-1.0275458 1.216605-1.4573073 1.867925 1.0885561.892309 3.137716 1.715096 2.5942582 2.889908-.5423337 1.172382-2.7903612.79901-4.3593587.943744-.1993163.703992-.3391498 1.425936-.4145789 2.161317 1.4451647.496194 3.7313946.654086 3.8065869 1.897264.0753256 1.245379-2.189685 1.564457-3.5678905 2.166209.1637451.726055.3930083 1.433399.6784023 2.122198 1.5799016.030576 3.7714146-.512606 4.4535812.616123.6823089 1.128962-1.2531371 2.098728-2.2299314 3.065943.5056319.615828 1.0709118 1.201046 1.6771595 1.755458 1.4725968-.444634 3.2272108-1.590702 4.4096118-.753038 1.183925.838747-.117908 2.307519-.546491 3.491358.765066.417671 1.562849.799899 2.399533 1.134449 1.146255-.84739 2.203205-2.44257 3.712364-2.019511 1.506041.422181 1.026407 2.172168 1.21233 3.393562.904344.155157 1.831752.264011 2.776421.322731.637411-1.124996.840238-2.904722 2.437222-2.963255 1.599808-.058638 2.009694 1.70457 2.782702 2.777439.932688-.127467 1.84134-.30594 2.726171-.528103.039275-1.229883-.658492-2.935876.791469-3.466912 1.45026-.531145 2.696017.975512 3.938498 1.735901.791092-.393611 1.542861-.833656 2.255058-1.305593-.571176-1.146349-2.043412-2.512237-.967351-3.432681 1.077452-.92163 2.96423.091785 4.48499.425418.536536-.595569 1.027546-1.216605 1.457307-1.867926-1.088556-.892309-3.137717-1.715096-2.594259-2.889908.542334-1.172383 2.790362-.79901 4.35936-.943743.199315-.703989.339148-1.425937.414579-2.161317-1.445165-.496194-3.731397-.654087-3.806588-1.897265-.075326-1.245378 2.189686-1.564455 3.567891-2.166209-.163746-.726052-.393008-1.433397-.678402-2.122197-1.579903-.030575-3.771415.512603-4.453582-.616124-.682309-1.128961 1.253138-2.098726 2.229932-3.065942-.505632-.615827-1.070912-1.201044-1.67716-1.755458-1.472596.444634-3.22721 1.590703-4.409611.753038-1.183925-.838746.117908-2.307518.546491-3.49136-.765067-.417668-1.562849-.799897-2.399533-1.134447-1.146256.847391-2.203205 2.442568-3.712365 2.019511-1.50604-.422181-1.026407-2.172168-1.212329-3.393562-.904344-.155158-1.831753-.264012-2.776422-.32273zm-1.652034 6.205232c6.879296 0 12.462491 4.346263 12.462491 9.70148 0 5.355218-5.583195 9.70148-12.462491 9.70148-6.879295 0-12.462491-4.346262-12.462491-9.70148 0-5.355217 5.583196-9.70148 12.462491-9.70148z" color="#000" display="block" enable-background="accumulate" overflow="visible" style="marker:none"/>
  <path fill="url(#n)" fill-rule="evenodd" d="m9.0985718 31.321543.050252 5.375501 2.1608342-.854051s1.75882-.502383 2.613104.100477c.570343.402486.753779-6.078839.753779-6.078839l-3.618142.050238-1.9598272 1.406674z" color="#000" enable-background="accumulate" overflow="visible" style="marker:none"/>
  <path fill="url(#o)" fill-rule="evenodd" d="m5.1096883 25.874784.1421343 5.399628 4.9391584-.284192.71067-5.435152-5.7919627.319716z" color="#000" enable-background="accumulate" overflow="visible" style="marker:none"/>
  <path fill="url(#p)" fill-rule="evenodd" d="m20.272091 41.885642.297203-5.30346.246208-4.028912-3.269083-.639429-2.274145 3.481338.071067 5.186484c.527646-.301429 2.284335-2.388951 3.979754-1.934789 1.076212.288292.948996 3.238768.948996 3.238768z" color="#000" enable-background="accumulate" overflow="visible" style="marker:none"/>
  <path fill="url(#q)" fill-rule="evenodd" d="m44.877981 18.360053-.100504 4.772642-5.678473-.502383.402015-2.411441 5.376962-1.858818z" color="#000" enable-background="accumulate" overflow="visible" style="marker:none"/>
  <path fill="url(#r)" fill-rule="evenodd" d="M44.727225 24.539368v5.224787l-5.175953.351668-.50252-5.325264 5.678473-.251191z" color="#000" enable-background="accumulate" overflow="visible" style="marker:none"/>
  <path fill="url(#s)" fill-rule="evenodd" d="M41.511099 35.541563s-3.216127-1.20572-4.120662-.803813c-.904537.401906-.804033-4.672165-.804033-4.672165 1.855117-1.24747 3.309116-.088892 4.924695.100477v5.375501z" color="#000" enable-background="accumulate" overflow="visible" style="marker:none"/>
  <path fill="url(#t)" fill-rule="evenodd" d="m41.712106 17.807431.201009-5.275025-5.527718.351668.050252-4.772641-2.311591-1.1554818-2.5126 4.1195438-1.809071-1.1554823-.603023-4.2702579-2.763859-.3516688-.854284 4.0693049-5.376962.5023833-1.708567-3.9185897v4.5214495s-2.261339.200954-2.462347.150716c-.201008-.050239-4.422174-1.6578656-4.422174-1.6578656l.150755 4.6219266-4.1206622-.502383-1.1055429.753575.4522677 4.169782 2.0603312.803813-4.7236863 1.004766-.0502521 5.275026 5.9802756-1.264747.954498-7.175294 3.618142-2.612393 5.82923-3.365968 10.854427 1.105243 7.33679 6.129077 2.864362-.100477z" color="#000" enable-background="accumulate" overflow="visible" style="marker:none"/>
  <path fill="url(#u)" fill-rule="evenodd" d="m28.227289 42.032046.050252-5.429055-1.847743-3.552388-2.558413.213144-.781738 3.836579-.04163 5.286959s1.024376-3.134719 2.528977-3.08448c1.704658.056917 2.177211 2.226858 2.650295 2.729241z" color="#000" enable-background="accumulate" overflow="visible" style="marker:none"/>
  <path fill="url(#v)" d="M26.378971 5.2164488c-.63741 1.1249947-.840237 2.9047207-2.437222 2.9632549-1.599807.0586376-2.009694-1.7045703-2.782702-2.7774403-.932688.127468-1.841339.3059385-2.72617.528105-.039276 1.2298813.658491 2.9358745-.791469 3.4669098-1.450261.5311471-2.696017-.9755095-3.938498-1.7358998-.791093.3936114-1.54286.8336565-2.255059 1.3055928.571177 1.1463498 2.043414 2.5122368.967351 3.4326808-1.077449.921631-2.9642294-.091784-4.4849891-.425418-.536536.595568-1.0275458 1.216607-1.4573073 1.867925 1.0885561.89231 3.137716 1.715097 2.5942582 2.889908-.5423337 1.172383-2.7903612.799011-4.3593587.943744-.1993163.703992-.3391498 1.425936-.4145789 2.161317 1.4451647.496194 3.7313946.654088 3.8065869 1.897265.0753256 1.245378-2.189685 1.564456-3.5678905 2.166209.1637451.726054.3930083 1.433398.6784023 2.122198 1.5799016.030575 3.7714146-.512606 4.4535812.616123.6823089 1.128961-1.2531371 2.098728-2.2299314 3.065942.5056319.615828 1.0709118 1.201046 1.6771595 1.755458 1.4725968-.444633 3.2272108-1.590701 4.4096118-.753038 1.183925.838747-.117908 2.307519-.546491 3.491359.765066.41767 1.562849.799899 2.399533 1.134449 1.146255-.847391 2.203205-2.44257 3.712364-2.019512 1.506041.422181 1.026407 2.17217 1.21233 3.393562.904344.155157 1.831752.264012 2.776421.322731.637411-1.124996.840238-2.904723 2.437222-2.963255 1.599808-.058637 2.009694 1.704572 2.782702 2.777439.932688-.127467 1.84134-.305939 2.726171-.528103.039275-1.229883-.658492-2.935876.791469-3.466911 1.45026-.531146 2.696017.975511 3.938498 1.735901.791092-.393612 1.542861-.833657 2.255058-1.305593-.571176-1.146349-2.043412-2.512238-.967351-3.432682 1.077452-.92163 2.96423.091785 4.48499.425418.536536-.595569 1.027546-1.216605 1.457307-1.867925-1.088556-.892309-3.137717-1.715097-2.594259-2.889908.542334-1.172384 2.790362-.799011 4.35936-.943744.199315-.703989.339148-1.425936.414579-2.161317-1.445165-.496194-3.731397-.654087-3.806588-1.897264-.075326-1.245379 2.189686-1.564457 3.567891-2.16621-.163746-.726052-.393008-1.433397-.678402-2.122197-1.579903-.030575-3.771415.512604-4.453582-.616122-.682309-1.128963 1.253138-2.098727 2.229932-3.065943-.505632-.615829-1.070912-1.201045-1.67716-1.755459-1.472596.444635-3.22721 1.590703-4.409611.753038-1.183925-.838746.117908-2.3075178.546491-3.4913599-.765067-.4176684-1.562849-.7998974-2.399533-1.134447-1.146256.8473913-2.203205 2.4425692-3.712365 2.0195117-1.50604-.4221825-1.026407-2.1721692-1.212329-3.3935627-.904344-.1551578-1.831753-.2640123-2.776422-.3227303zM24.726937 11.42168c6.879296 0 12.462491 4.346264 12.462491 9.701481 0 5.355218-5.583195 9.70148-12.462491 9.70148-6.879295 0-12.462491-4.346262-12.462491-9.70148 0-5.355217 5.583196-9.701481 12.462491-9.701481z" color="#000" display="block" enable-background="accumulate" overflow="visible" style="marker:none"/>
  <path fill="url(#w)" fill-rule="evenodd" d="M35.681869 39.912298v-5.526216s-2.713607-2.310965-3.819151-1.758343c-1.105543.552622-1.306551 2.110011-1.306551 2.110011l.402016 6.832413s-.552772-3.215253 1.005039-3.516683c1.557812-.30143 3.718647 1.858818 3.718647 1.858818z" color="#000" enable-background="accumulate" overflow="visible" style="marker:none"/>
  <path fill="url(#x)" d="M26.378971 5.2164488c-.63741 1.1249947-.840237 2.9047207-2.437222 2.9632549-1.599807.0586376-2.009694-1.7045703-2.782702-2.7774403-.932688.127468-1.841339.3059385-2.72617.528105-.039276 1.2298813.658491 2.9358745-.791469 3.4669098-1.450261.5311471-2.696017-.9755095-3.938498-1.7358998-.791093.3936114-1.54286.8336565-2.255059 1.3055928.571177 1.1463498 2.043414 2.5122368.967351 3.4326808-1.077449.921631-2.9642294-.091784-4.4849891-.425418-.536536.595568-1.0275458 1.216607-1.4573073 1.867925 1.0885561.89231 3.137716 1.715097 2.5942582 2.889908-.5423337 1.172383-2.7903612.799011-4.3593587.943744-.1993163.703992-.3391498 1.425936-.4145789 2.161317 1.4451647.496194 3.7313946.654088 3.8065869 1.897265.0753256 1.245378-2.189685 1.564456-3.5678905 2.166209.1637451.726054.3930083 1.433398.6784023 2.122198 1.5799016.030575 3.7714146-.512606 4.4535812.616123.6823089 1.128961-1.2531371 2.098728-2.2299314 3.065942.5056319.615828 1.0709118 1.201046 1.6771595 1.755458 1.4725968-.444633 3.2272108-1.590701 4.4096118-.753038 1.183925.838747-.117908 2.307519-.546491 3.491359.765066.41767 1.562849.799899 2.399533 1.134449 1.146255-.847391 2.203205-2.44257 3.712364-2.019512 1.506041.422181 1.026407 2.17217 1.21233 3.393562.904344.155157 1.831752.264012 2.776421.322731.637411-1.124996.840238-2.904723 2.437222-2.963255 1.599808-.058637 2.009694 1.704572 2.782702 2.777439.932688-.127467 1.84134-.305939 2.726171-.528103.039275-1.229883-.658492-2.935876.791469-3.466911 1.45026-.531146 2.696017.975511 3.938498 1.735901.791092-.393612 1.542861-.833657 2.255058-1.305593-.571176-1.146349-2.043412-2.512238-.967351-3.432682 1.077452-.92163 2.96423.091785 4.48499.425418.536536-.595569 1.027546-1.216605 1.457307-1.867925-1.088556-.892309-3.137717-1.715097-2.594259-2.889908.542334-1.172384 2.790362-.799011 4.35936-.943744.199315-.703989.339148-1.425936.414579-2.161317-1.445165-.496194-3.731397-.654087-3.806588-1.897264-.075326-1.245379 2.189686-1.564457 3.567891-2.16621-.163746-.726052-.393008-1.433397-.678402-2.122197-1.579903-.030575-3.771415.512604-4.453582-.616122-.682309-1.128963 1.253138-2.098727 2.229932-3.065943-.505632-.615829-1.070912-1.201045-1.67716-1.755459-1.472596.444635-3.22721 1.590703-4.409611.753038-1.183925-.838746.117908-2.3075178.546491-3.4913599-.765067-.4176684-1.562849-.7998974-2.399533-1.134447-1.146256.8473913-2.203205 2.4425692-3.712365 2.0195117-1.50604-.4221825-1.026407-2.1721692-1.212329-3.3935627-.904344-.1551578-1.831753-.2640123-2.776422-.3227303zM24.726937 11.42168c6.879296 0 12.462491 4.346264 12.462491 9.701481 0 5.355218-5.583195 9.70148-12.462491 9.70148-6.879295 0-12.462491-4.346262-12.462491-9.70148 0-5.355217 5.583196-9.701481 12.462491-9.701481z" color="#000" display="block" enable-background="accumulate" overflow="visible" style="marker:none"/>
  <path fill="url(#y)" d="M26.378971 5.2164488c-.63741 1.1249947-.840237 2.9047207-2.437222 2.9632549-1.599807.0586376-2.009694-1.7045703-2.782702-2.7774403-.932688.127468-1.841339.3059385-2.72617.528105-.039276 1.2298813.658491 2.9358745-.791469 3.4669098-1.450261.5311471-2.696017-.9755095-3.938498-1.7358998-.791093.3936114-1.54286.8336565-2.255059 1.3055928.571177 1.1463498 2.043414 2.5122368.967351 3.4326808-1.077449.921631-2.9642294-.091784-4.4849891-.425418-.536536.595568-1.0275458 1.216607-1.4573073 1.867925 1.0885561.89231 3.137716 1.715097 2.5942582 2.889908-.5423337 1.172383-2.7903612.799011-4.3593587.943744-.1993163.703992-.3391498 1.425936-.4145789 2.161317 1.4451647.496194 3.7313946.654088 3.8065869 1.897265.0753256 1.245378-2.189685 1.564456-3.5678905 2.166209.1637451.726054.3930083 1.433398.6784023 2.122198 1.5799016.030575 3.7714146-.512606 4.4535812.616123.6823089 1.128961-1.2531371 2.098728-2.2299314 3.065942.5056319.615828 1.0709118 1.201046 1.6771595 1.755458 1.4725968-.444633 3.2272108-1.590701 4.4096118-.753038 1.183925.838747-.117908 2.307519-.546491 3.491359.765066.41767 1.562849.799899 2.399533 1.134449 1.146255-.847391 2.203205-2.44257 3.712364-2.019512 1.506041.422181 1.026407 2.17217 1.21233 3.393562.904344.155157 1.831752.264012 2.776421.322731.637411-1.124996.840238-2.904723 2.437222-2.963255 1.599808-.058637 2.009694 1.704572 2.782702 2.777439.932688-.127467 1.84134-.305939 2.726171-.528103.039275-1.229883-.658492-2.935876.791469-3.466911 1.45026-.531146 2.696017.975511 3.938498 1.735901.791092-.393612 1.542861-.833657 2.255058-1.305593-.571176-1.146349-2.043412-2.512238-.967351-3.432682 1.077452-.92163 2.96423.091785 4.48499.425418.536536-.595569 1.027546-1.216605 1.457307-1.867925-1.088556-.892309-3.137717-1.715097-2.594259-2.889908.542334-1.172384 2.790362-.799011 4.35936-.943744.199315-.703989.339148-1.425936.414579-2.161317-1.445165-.496194-3.731397-.654087-3.806588-1.897264-.075326-1.245379 2.189686-1.564457 3.567891-2.16621-.163746-.726052-.393008-1.433397-.678402-2.122197-1.579903-.030575-3.771415.512604-4.453582-.616122-.682309-1.128963 1.253138-2.098727 2.229932-3.065943-.505632-.615829-1.070912-1.201045-1.67716-1.755459-1.472596.444635-3.22721 1.590703-4.409611.753038-1.183925-.838746.117908-2.3075178.546491-3.4913599-.765067-.4176684-1.562849-.7998974-2.399533-1.134447-1.146256.8473913-2.203205 2.4425692-3.712365 2.0195117-1.50604-.4221825-1.026407-2.1721692-1.212329-3.3935627-.904344-.1551578-1.831753-.2640123-2.776422-.3227303zM24.726937 11.42168c6.879296 0 12.462491 4.346264 12.462491 9.701481 0 5.355218-5.583195 9.70148-12.462491 9.70148-6.879295 0-12.462491-4.346262-12.462491-9.70148 0-5.355217 5.583196-9.701481 12.462491-9.701481z" color="#000" display="block" enable-background="accumulate" overflow="visible" style="marker:none"/>
  <path fill="url(#z)" fill-rule="evenodd" d="m28.244575 36.84776-.050251 5.325264 2.814111-.602861-.025866-5.295833-2.737994.57343z"/>
  <path fill="url(#A)" fill-rule="evenodd" d="m35.681869 34.386082.050252 5.576454 2.361843-1.557388-.201007-5.023833-2.211088 1.004767z" color="#000" enable-background="accumulate" overflow="visible" style="marker:none"/>
  <path fill="url(#B)" fill-rule="evenodd" d="M41.511099 30.266538v5.42574l1.457308-2.11001.050252-5.023834-1.50756 1.708104z" color="#000" enable-background="accumulate" overflow="visible" style="marker:none"/>
  <path fill="url(#C)" fill-rule="evenodd" d="M24.752063 11.376925c-6.865425 0-12.487616 4.31085-12.487617 9.746236 0 .904547.209087 1.880658.497998 2.71287 1.447141-4.168518 6.266726-7.23432 11.989619-7.23432 5.722893 0 10.542478 3.065802 11.98962 7.23432.288911-.832212.447745-1.808323.447745-2.71287 0-5.435386-5.57194-9.746236-12.437365-9.746236z" color="#000" enable-background="accumulate" overflow="visible" style="marker:none"/>
  <path fill="url(#D)" d="M26.378971 5.2164488c-.63741 1.1249947-.840237 2.9047207-2.437222 2.9632549-1.599807.0586376-2.009694-1.7045703-2.782702-2.7774403-.932688.127468-1.841339.3059385-2.72617.528105-.039276 1.2298813.658491 2.9358745-.791469 3.4669098-1.450261.5311471-2.696017-.9755095-3.938498-1.7358998-.791093.3936114-1.54286.8336565-2.255059 1.3055928.571177 1.1463498 2.043414 2.5122368.967351 3.4326808-1.077449.921631-2.9642294-.091784-4.4849891-.425418-.536536.595568-1.0275458 1.216607-1.4573073 1.867925 1.0885561.89231 3.137716 1.715097 2.5942582 2.889908-.5423337 1.172383-2.7903612.799011-4.3593587.943744-.1993163.703992-.3391498 1.425936-.4145789 2.161317 1.4451647.496194 3.7313946.654088 3.8065869 1.897265.0753256 1.245378-2.189685 1.564456-3.5678905 2.166209.1637451.726054.3930083 1.433398.6784023 2.122198 1.5799016.030575 3.7714146-.512606 4.4535812.616123.6823089 1.128961-1.2531371 2.098728-2.2299314 3.065942.5056319.615828 1.0709118 1.201046 1.6771595 1.755458 1.4725968-.444633 3.2272108-1.590701 4.4096118-.753038 1.183925.838747-.117908 2.307519-.546491 3.491359.765066.41767 1.562849.799899 2.399533 1.134449 1.146255-.847391 2.203205-2.44257 3.712364-2.019512 1.506041.422181 1.026407 2.17217 1.21233 3.393562.904344.155157 1.831752.264012 2.776421.322731.637411-1.124996.840238-2.904723 2.437222-2.963255 1.599808-.058637 2.009694 1.704572 2.782702 2.777439.932688-.127467 1.84134-.305939 2.726171-.528103.039275-1.229883-.658492-2.935876.791469-3.466911 1.45026-.531146 2.696017.975511 3.938498 1.735901.791092-.393612 1.542861-.833657 2.255058-1.305593-.571176-1.146349-2.043412-2.512238-.967351-3.432682 1.077452-.92163 2.96423.091785 4.48499.425418.536536-.595569 1.027546-1.216605 1.457307-1.867925-1.088556-.892309-3.137717-1.715097-2.594259-2.889908.542334-1.172384 2.790362-.799011 4.35936-.943744.199315-.703989.339148-1.425936.414579-2.161317-1.445165-.496194-3.731397-.654087-3.806588-1.897264-.075326-1.245379 2.189686-1.564457 3.567891-2.16621-.163746-.726052-.393008-1.433397-.678402-2.122197-1.579903-.030575-3.771415.512604-4.453582-.616122-.682309-1.128963 1.253138-2.098727 2.229932-3.065943-.505632-.615829-1.070912-1.201045-1.67716-1.755459-1.472596.444635-3.22721 1.590703-4.409611.753038-1.183925-.838746.117908-2.3075178.546491-3.4913599-.765067-.4176684-1.562849-.7998974-2.399533-1.134447-1.146256.8473913-2.203205 2.4425692-3.712365 2.0195117-1.50604-.4221825-1.026407-2.1721692-1.212329-3.3935627-.904344-.1551578-1.831753-.2640123-2.776422-.3227303zM24.726937 11.42168c6.879296 0 12.462491 4.346264 12.462491 9.701481 0 5.355218-5.583195 9.70148-12.462491 9.70148-6.879295 0-12.462491-4.346262-12.462491-9.70148 0-5.355217 5.583196-9.701481 12.462491-9.701481z" color="#000" display="block" enable-background="accumulate" overflow="visible" style="marker:none"/>
  <path fill="#6f6f6f" fill-rule="evenodd" d="M45.179494 22.479597v5.174547l-.452269 2.160249v-5.224787l.452269-2.110009z" color="#000" enable-background="accumulate" overflow="visible" style="marker:none"/>
  <path fill="url(#E)" fill-rule="evenodd" d="m28.118946 36.496091.150756.175835.150757-.075359-.089488 5.250371-.136647.125132-.075378-5.475979z" color="#000" enable-background="accumulate" opacity=".36571428" overflow="visible" style="marker:none"/>
  <path fill="url(#F)" fill-rule="evenodd" d="M20.279637 36.722164c.912506.126408 1.837651.27778 2.814111.276311l-.025126 5.275025c-.882608-.078555-1.839498-.181134-2.788985-.326549v-5.224787z" color="#000" enable-background="accumulate" overflow="visible" style="marker:none"/>
  <path fill="url(#G)" fill-rule="evenodd" d="M15.329817 35.240133v5.275025l-2.462347-1.155481.150756-5.224787 2.311591 1.105243z" color="#000" enable-background="accumulate" overflow="visible" style="marker:none"/>
  <path fill="url(#H)" fill-rule="evenodd" d="m9.0985718 31.42202.050252 5.224786c-.5527718-.299954-1.1557956-.874335-1.7085675-1.708102v-5.224787c.5527719.683352 1.1055437 1.291488 1.6583155 1.708103z" color="#000" enable-background="accumulate" overflow="visible" style="marker:none"/>
  <path fill="#fff" fill-rule="evenodd" d="m5.229169 31.271305-.0753778-5.400621c-.2010081-.482546-.427142-1.159923-.6281494-1.909057v5.199668c.1364504.930448.4345558 1.577018.7035272 2.11001z" color="#000" enable-background="accumulate" overflow="visible" style="marker:none"/>
  <path fill="none" stroke="url(#I)" stroke-miterlimit="10" d="M26.399171 5.020641c-.645203 1.1388432-.85051 2.9404772-2.467021 2.9997319-1.619367.0593595-2.034266-1.7255532-2.816725-2.81163-.944092.1290371-1.863853.3097046-2.759502.5346059-.039756 1.2450209.666542 2.9720145-.801147 3.5095867-1.467993.5376856-2.728979-.9875178-3.986652-1.7572683-.800766.3984566-1.561724.8439186-2.282631 1.3216643.57816 1.1604614 2.068399 2.5431615.979179 3.4749365-1.090623.932976-3.0004728-.092913-4.5398263-.430655-.5430961.6029-1.0401093 1.231584-1.4751255 1.890919 1.1018657.903295 3.1760805 1.73621 2.6259775 2.925482-.5489646 1.186815-2.8244781.808846-4.4126592.955362-.2017534.712658-.3432966 1.443488-.4196479 2.187921 1.4628343.502303 3.7770173.662141 3.8531289 1.92062.0762466 1.260709-2.2164576 1.583715-3.611514 2.192876.1657471.734991.3978135 1.451042.6866969 2.148321 1.5992186.030952 3.8175266-.518916 4.5080337.623707.6906519 1.142859-1.2684587 2.124563-2.2571961 3.103683.5118142.623409 1.0840057 1.215831 1.6976657 1.777068 1.4906023-.450107 3.2666683-1.610283 4.4635263-.762308 1.198401.849072-.119349 2.335924-.553172 3.534337.77442.422811 1.581957.809745 2.428871 1.148413 1.16027-.857821 2.230143-2.472636 3.757754-2.044371 1.524455.427379 1.038956 2.198909 1.227153 3.435336.915401.157067 1.854148.267262 2.810368.326704.645204-1.138845.85051-2.94048 2.467021-2.999733 1.619368-.059358 2.034266 1.725556 2.816725 2.811629.944091-.129036 1.863853-.309705 2.759503-.534604.039755-1.245022-.666543-2.972015.801146-3.509587 1.467992-.537685 2.728981.987519 3.986653 1.757269.800764-.398457 1.561725-.843918 2.28263-1.321664-.57816-1.16046-2.068396-2.543163-.979179-3.474938 1.090626-.932975 3.000473.092915 4.539827.430655.543097-.6029 1.040109-1.231581 1.475125-1.890919-1.101865-.903293-3.176081-1.736209-2.625979-2.925482.548966-1.186815 2.824479-.808847 4.412661-.955361.201752-.712655.343295-1.443489.419649-2.187923-1.462835-.502301-3.777021-.662138-3.853131-1.920619-.076247-1.260709 2.216458-1.583715 3.611515-2.192875-.165748-.73499-.397813-1.451042-.686697-2.148321-1.59922-.030951-3.817527.518915-4.508034-.623707-.690652-1.142859 1.268459-2.124562 2.257196-3.103684-.511814-.623409-1.084005-1.215829-1.697666-1.777067-1.490601.450107-3.266668 1.610283-4.463526.762307-1.1984-.849071.11935-2.335923.553173-3.5343379-.774421-.4228098-1.581958-.809744-2.428872-1.1484118-1.16027.8578226-2.230143 2.4726367-3.757754 2.0443715-1.524454-.4273795-1.038957-2.1989081-1.227152-3.4353368-.915401-.1570677-1.854149-.2672622-2.810369-.326703z" color="#000" display="block" enable-background="accumulate" opacity=".83428571" overflow="visible" style="marker:none"/>
  <path fill="none" stroke="url(#J)" stroke-miterlimit="10" d="M24.726937 10.99282c7.180098 0 13.007421 4.538393 13.007421 10.130341 0 5.591949-5.827323 10.13034-13.007421 10.13034-7.180097 0-13.007421-4.538391-13.007421-10.13034 0-5.591948 5.827324-10.130341 13.007421-10.130341z" color="#000" display="block" enable-background="accumulate" overflow="visible" style="marker:none"/>
</svg>